<svg width="100%" height="100%" viewBox="0 0 1000 1000" version="1.1" xmlns="http://www.w3.org/2000/svg" xmlns:xlink="http://www.w3.org/1999/xlink" xml:space="preserve" xmlns:serif="http://www.serif.com/" style="fill-rule:evenodd;clip-rule:evenodd;stroke-linejoin:round;stroke-miterlimit:1.5;">
    <g transform="matrix(1,0,0,1,-1053.62,-1051.71)">
        <g id="Artboard1" transform="matrix(1,0,0,1,1053.62,1051.71)">
            <rect x="0" y="0" width="1000" height="1000" style="fill:none;"/>
            <g transform="matrix(1.16463,0,0,1.16463,-82.0486,-80.2824)">
                <g transform="matrix(3.40871,0,0,3.40871,-843.652,-5640.15)">
                    <g transform="matrix(50,0,0,50,290.384,1921.86)">
                        <path d="M0.049,-0.621C0.046,-0.629 0.044,-0.637 0.044,-0.645C0.044,-0.662 0.05,-0.676 0.062,-0.688C0.073,-0.699 0.087,-0.705 0.104,-0.705C0.131,-0.705 0.149,-0.693 0.159,-0.669L0.345,-0.214C0.349,-0.205 0.354,-0.2 0.359,-0.2C0.364,-0.2 0.369,-0.205 0.373,-0.214L0.559,-0.669C0.569,-0.693 0.587,-0.705 0.614,-0.705C0.631,-0.705 0.645,-0.699 0.657,-0.688C0.668,-0.676 0.674,-0.662 0.674,-0.645C0.674,-0.637 0.672,-0.629 0.669,-0.621L0.435,-0.048C0.421,-0.013 0.396,0.004 0.359,0.004C0.322,0.004 0.297,-0.013 0.283,-0.048L0.049,-0.621ZM0.323,-0.092L0.323,-0.093L0.323,-0.092ZM0.395,-0.093L0.395,-0.092L0.395,-0.093Z" style="fill:currentColor;fill-rule:nonzero;"/>
                    </g>
                    <g transform="matrix(50,0,0,50,328.784,1921.86)">
                        <path d="M0.46,-0.12C0.477,-0.12 0.491,-0.114 0.503,-0.103C0.514,-0.091 0.52,-0.077 0.52,-0.06C0.52,-0.043 0.514,-0.029 0.503,-0.018C0.491,-0.006 0.477,-0 0.46,-0L0.119,-0C0.098,-0 0.081,-0.007 0.066,-0.022C0.051,-0.037 0.044,-0.054 0.044,-0.075L0.044,-0.625C0.044,-0.646 0.051,-0.663 0.066,-0.678C0.081,-0.693 0.098,-0.7 0.119,-0.7L0.46,-0.7C0.477,-0.7 0.491,-0.694 0.503,-0.683C0.514,-0.671 0.52,-0.657 0.52,-0.64C0.52,-0.623 0.514,-0.609 0.503,-0.598C0.491,-0.586 0.477,-0.58 0.46,-0.58L0.201,-0.58C0.191,-0.58 0.182,-0.576 0.175,-0.569C0.168,-0.562 0.164,-0.553 0.164,-0.543L0.164,-0.447C0.164,-0.437 0.168,-0.428 0.175,-0.421C0.182,-0.414 0.191,-0.41 0.201,-0.41L0.39,-0.41C0.407,-0.41 0.421,-0.404 0.433,-0.393C0.444,-0.381 0.45,-0.367 0.45,-0.35C0.45,-0.333 0.444,-0.319 0.433,-0.308C0.421,-0.296 0.407,-0.29 0.39,-0.29L0.201,-0.29C0.191,-0.29 0.182,-0.286 0.175,-0.279C0.168,-0.272 0.164,-0.263 0.164,-0.253L0.164,-0.157C0.164,-0.147 0.168,-0.138 0.175,-0.131C0.182,-0.124 0.191,-0.12 0.201,-0.12L0.46,-0.12Z" style="fill:currentColor;fill-rule:nonzero;"/>
                    </g>
                    <g transform="matrix(50,0,0,50,359.484,1921.86)">
                        <path d="M0.164,-0.054C0.164,-0.037 0.158,-0.023 0.147,-0.012C0.135,0 0.121,0.006 0.104,0.006C0.087,0.006 0.073,0 0.062,-0.012C0.05,-0.023 0.044,-0.037 0.044,-0.054L0.044,-0.625C0.044,-0.646 0.051,-0.663 0.066,-0.678C0.081,-0.692 0.098,-0.699 0.119,-0.699L0.306,-0.699C0.375,-0.699 0.435,-0.674 0.486,-0.623C0.537,-0.572 0.562,-0.512 0.562,-0.443C0.562,-0.401 0.552,-0.362 0.533,-0.325C0.514,-0.288 0.487,-0.258 0.454,-0.235C0.445,-0.23 0.44,-0.222 0.439,-0.212C0.437,-0.202 0.439,-0.193 0.445,-0.186L0.517,-0.092C0.525,-0.082 0.529,-0.07 0.529,-0.055C0.529,-0.038 0.523,-0.024 0.512,-0.013C0.5,-0.001 0.486,0.005 0.469,0.005C0.45,0.005 0.434,-0.003 0.422,-0.018L0.316,-0.157C0.3,-0.176 0.28,-0.186 0.256,-0.186L0.201,-0.186C0.191,-0.186 0.182,-0.182 0.175,-0.175C0.168,-0.168 0.164,-0.159 0.164,-0.149L0.164,-0.054ZM0.164,-0.343C0.164,-0.333 0.168,-0.324 0.175,-0.317C0.182,-0.31 0.191,-0.306 0.201,-0.306L0.306,-0.306C0.347,-0.306 0.38,-0.319 0.405,-0.344C0.43,-0.369 0.442,-0.402 0.442,-0.443C0.442,-0.484 0.43,-0.517 0.405,-0.542C0.38,-0.567 0.347,-0.579 0.306,-0.579L0.201,-0.579C0.191,-0.579 0.182,-0.575 0.175,-0.568C0.168,-0.561 0.164,-0.552 0.164,-0.542L0.164,-0.343Z" style="fill:currentColor;fill-rule:nonzero;"/>
                    </g>
                    <g transform="matrix(50,0,0,50,392.284,1921.86)">
                        <path d="M0.164,-0.054C0.164,-0.037 0.158,-0.023 0.147,-0.012C0.135,0 0.121,0.006 0.104,0.006C0.087,0.006 0.073,0 0.062,-0.012C0.05,-0.023 0.044,-0.037 0.044,-0.054L0.044,-0.626C0.044,-0.646 0.051,-0.663 0.066,-0.678C0.081,-0.693 0.098,-0.7 0.119,-0.7L0.306,-0.7C0.375,-0.7 0.436,-0.675 0.487,-0.624C0.538,-0.573 0.563,-0.513 0.563,-0.443C0.563,-0.374 0.538,-0.314 0.487,-0.263C0.436,-0.212 0.375,-0.186 0.306,-0.186L0.201,-0.186C0.191,-0.186 0.182,-0.182 0.175,-0.175C0.168,-0.168 0.164,-0.159 0.164,-0.149L0.164,-0.054ZM0.164,-0.343C0.164,-0.333 0.168,-0.324 0.175,-0.317C0.182,-0.31 0.191,-0.306 0.201,-0.306L0.306,-0.306C0.347,-0.306 0.38,-0.319 0.405,-0.344C0.43,-0.369 0.443,-0.402 0.443,-0.443C0.443,-0.484 0.43,-0.517 0.405,-0.542C0.38,-0.567 0.347,-0.58 0.306,-0.58L0.201,-0.58C0.191,-0.58 0.182,-0.576 0.175,-0.569C0.168,-0.562 0.164,-0.553 0.164,-0.543L0.164,-0.343Z" style="fill:currentColor;fill-rule:nonzero;"/>
                    </g>
                    <g transform="matrix(50,0,0,50,425.134,1921.86)">
                        <path d="M0.164,-0.054C0.164,-0.037 0.158,-0.023 0.147,-0.012C0.135,0 0.121,0.006 0.104,0.006C0.087,0.006 0.073,0 0.062,-0.012C0.05,-0.023 0.044,-0.037 0.044,-0.054L0.044,-0.625C0.044,-0.646 0.051,-0.663 0.066,-0.678C0.081,-0.692 0.098,-0.699 0.119,-0.699L0.306,-0.699C0.375,-0.699 0.435,-0.674 0.486,-0.623C0.537,-0.572 0.562,-0.512 0.562,-0.443C0.562,-0.401 0.552,-0.362 0.533,-0.325C0.514,-0.288 0.487,-0.258 0.454,-0.235C0.445,-0.23 0.44,-0.222 0.439,-0.212C0.437,-0.202 0.439,-0.193 0.445,-0.186L0.517,-0.092C0.525,-0.082 0.529,-0.07 0.529,-0.055C0.529,-0.038 0.523,-0.024 0.512,-0.013C0.5,-0.001 0.486,0.005 0.469,0.005C0.45,0.005 0.434,-0.003 0.422,-0.018L0.316,-0.157C0.3,-0.176 0.28,-0.186 0.256,-0.186L0.201,-0.186C0.191,-0.186 0.182,-0.182 0.175,-0.175C0.168,-0.168 0.164,-0.159 0.164,-0.149L0.164,-0.054ZM0.164,-0.343C0.164,-0.333 0.168,-0.324 0.175,-0.317C0.182,-0.31 0.191,-0.306 0.201,-0.306L0.306,-0.306C0.347,-0.306 0.38,-0.319 0.405,-0.344C0.43,-0.369 0.442,-0.402 0.442,-0.443C0.442,-0.484 0.43,-0.517 0.405,-0.542C0.38,-0.567 0.347,-0.579 0.306,-0.579L0.201,-0.579C0.191,-0.579 0.182,-0.575 0.175,-0.568C0.168,-0.561 0.164,-0.552 0.164,-0.542L0.164,-0.343Z" style="fill:currentColor;fill-rule:nonzero;"/>
                    </g>
                    <g transform="matrix(50,0,0,50,457.934,1921.86)">
                        <path d="M0.4,-0.115C0.469,-0.115 0.525,-0.137 0.569,-0.182C0.613,-0.226 0.635,-0.282 0.635,-0.351C0.635,-0.419 0.613,-0.475 0.569,-0.519C0.525,-0.563 0.469,-0.585 0.4,-0.585C0.331,-0.585 0.275,-0.563 0.231,-0.519C0.186,-0.475 0.164,-0.419 0.164,-0.351C0.164,-0.282 0.186,-0.226 0.23,-0.182C0.274,-0.137 0.331,-0.115 0.4,-0.115ZM0.4,0.005C0.302,0.005 0.218,-0.03 0.149,-0.1C0.079,-0.169 0.044,-0.253 0.044,-0.351C0.044,-0.448 0.079,-0.532 0.149,-0.601C0.218,-0.67 0.302,-0.705 0.4,-0.705C0.497,-0.705 0.581,-0.67 0.651,-0.601C0.72,-0.532 0.755,-0.448 0.755,-0.351C0.755,-0.253 0.72,-0.169 0.651,-0.1C0.581,-0.03 0.497,0.005 0.4,0.005Z" style="fill:currentColor;fill-rule:nonzero;"/>
                    </g>
                </g>
                <g transform="matrix(1,0,0,1,0.902856,-165.42)">
                    <path d="M698.112,450C698.112,450 673.578,425.93 648.815,401.634C635.412,388.484 627.821,370.523 627.732,351.747C627.642,332.971 635.062,314.938 648.338,301.662C648.339,301.661 648.339,301.661 648.339,301.661C661.531,288.469 679.428,281.065 698.084,281.083C716.741,281.1 734.624,288.537 747.791,301.753C775.672,329.739 810.603,364.8 839.734,394.04C871.787,426.212 871.738,478.262 839.625,510.375C797.759,552.241 591.779,758.221 527.25,822.75C512.2,837.8 487.8,837.8 472.75,822.75C408.41,758.41 245.9,595.9 158.222,508.222C126.067,476.067 126.067,423.933 158.222,391.778C187.307,362.693 222.14,327.86 250.001,299.999C263.262,286.738 281.247,279.289 300,279.289C318.753,279.289 336.738,286.738 349.999,299.999C350,300 350,300 350.001,300.001C363.262,313.262 370.711,331.247 370.711,350C370.711,368.753 363.262,386.738 350.001,399.999C290.761,459.239 200,550 200,550" style="fill:none;stroke:black;stroke-width:46.51px;"/>
                    <g transform="matrix(1,0,0,1,-1.59506,0)">
                        <path d="M301.595,450C301.595,450 419.632,568.037 474.346,622.75C481.573,629.977 491.375,634.038 501.595,634.038C511.816,634.038 521.618,629.977 528.845,622.75C602.77,548.825 801.595,350 801.595,350" style="fill:none;stroke:black;stroke-width:46.51px;"/>
                    </g>
                </g>
            </g>
        </g>
    </g>
</svg>
