<svg width="100%" height="100%" viewBox="0 0 1000 1000" version="1.1" xmlns="http://www.w3.org/2000/svg" xmlns:xlink="http://www.w3.org/1999/xlink" xml:space="preserve" xmlns:serif="http://www.serif.com/" style="fill-rule:evenodd;clip-rule:evenodd;stroke-linejoin:round;stroke-miterlimit:1.5;">
    <g transform="matrix(1,0,0,1,-1053.62,-1051.71)">
        <g id="Artboard1" transform="matrix(1,0,0,1,1053.62,1051.71)">
            <g transform="matrix(1.16463,0,0,1.16463,-82.0486,-80.2824)">
                <g transform="matrix(3.40871,0,0,3.40871,-843.652,-5640.15)">
                    <text x="290.384px" y="1921.86px" style="font-family:'quartet-bold-bc', 'Quartet BC';font-size:50px;fill:currentColor;">V<tspan x="328.784px 359.484px 392.284px 425.134px 457.934px " y="1921.86px 1921.86px 1921.86px 1921.86px 1921.86px ">ERPRO</tspan></text>
                </g>
                <g transform="matrix(1,0,0,1,0.902856,-165.42)">
                    <path d="M698.112,450C698.112,450 673.578,425.93 648.815,401.634C635.412,388.484 627.821,370.523 627.732,351.747C627.642,332.971 635.062,314.938 648.338,301.662C648.339,301.661 648.339,301.661 648.339,301.661C661.531,288.469 679.428,281.065 698.084,281.083C716.741,281.1 734.624,288.537 747.791,301.753C775.672,329.739 810.603,364.8 839.734,394.04C871.787,426.212 871.738,478.262 839.625,510.375C797.759,552.241 591.779,758.221 527.25,822.75C512.2,837.8 487.8,837.8 472.75,822.75C408.41,758.41 245.9,595.9 158.222,508.222C126.067,476.067 126.067,423.933 158.222,391.778C187.307,362.693 222.14,327.86 250.001,299.999C263.262,286.738 281.247,279.289 300,279.289C318.753,279.289 336.738,286.738 349.999,299.999C350,300 350,300 350.001,300.001C363.262,313.262 370.711,331.247 370.711,350C370.711,368.753 363.262,386.738 350.001,399.999C290.761,459.239 200,550 200,550" style="fill:none;stroke:currentColor;stroke-width:46.51px;"/>
                    <g transform="matrix(1,0,0,1,-1.59506,0)">
                        <path d="M301.595,450C301.595,450 419.632,568.037 474.346,622.75C481.573,629.977 491.375,634.038 501.595,634.038C511.816,634.038 521.618,629.977 528.845,622.75C602.77,548.825 801.595,350 801.595,350" style="fill:none;stroke:currentColor;stroke-width:46.51px;"/>
                    </g>
                </g>
            </g>
        </g>
    </g>
</svg>
